<svg width="44" height="44" viewBox="0 0 44 44" fill="none" xmlns="http://www.w3.org/2000/svg">
<path fill-rule="evenodd" clip-rule="evenodd" d="M21.7599 0C33.7776 0 43.5201 9.74249 43.5201 21.7599C43.5201 33.7776 33.7776 43.5201 21.7599 43.5201C9.74249 43.5201 0 33.7776 0 21.7599C0 9.74249 9.74249 0 21.7599 0Z" fill="#202024"/>
<mask id="mask0_703_1044" style="mask-type:luminance" maskUnits="userSpaceOnUse" x="0" y="0" width="44" height="44">
<path d="M21.7599 0C33.7776 0 43.5201 9.74249 43.5201 21.7599C43.5201 33.7776 33.7776 43.5201 21.7599 43.5201C9.74249 43.5201 0 33.7776 0 21.7599C0 9.74249 9.74249 0 21.7599 0Z" fill="white"/>
</mask>
<g mask="url(#mask0_703_1044)">
<path d="M25.3122 22.5615V20.9431C25.3141 20.7836 25.285 20.6256 25.2272 20.4779C25.169 20.3301 25.0828 20.1955 24.9736 20.0822C24.7476 19.844 24.3931 19.7254 23.8987 19.7254H20.5005C20.3278 19.7371 20.16 19.79 20.0103 19.8796C19.8176 19.9809 19.6445 20.1184 19.5012 20.2847C19.3667 20.4287 19.2888 20.6185 19.282 20.8176V22.3604C19.279 22.6957 19.3814 23.023 19.5749 23.2932C19.6743 23.421 19.8025 23.5227 19.9487 23.5884C20.0946 23.6546 20.2541 23.6833 20.4132 23.6719H24.2048C24.4868 23.681 24.7631 23.5911 24.9883 23.4172C25.2019 23.2464 25.3107 22.9625 25.3107 22.563L25.3122 22.5615ZM27.5195 23.3042C27.5218 23.7332 27.3978 24.1527 27.1635 24.508C26.9397 24.8602 26.6434 25.1577 26.2957 25.3799C26.0281 25.5685 25.7155 25.6796 25.3912 25.7008H19.4797C19.022 25.7102 18.5722 25.5765 18.1912 25.3168C17.8284 25.0704 17.5306 24.7359 17.3246 24.3428C17.1345 24.0023 17.0302 23.619 17.0207 23.2271V20.2639C17.0207 19.9431 17.0914 19.626 17.2278 19.3368C17.3628 19.0454 17.5468 18.7805 17.7717 18.5545C17.9871 18.3345 18.2362 18.1523 18.5095 18.0159C18.7461 17.8923 19.0069 17.825 19.2726 17.819H25.0919C25.4275 17.8382 25.756 17.9286 26.0564 18.0835C26.4605 18.2767 26.8108 18.5707 27.075 18.9388C27.3713 19.3357 27.5195 19.8448 27.5195 20.4665V23.3042Z" fill="#ED1C24"/>
<path d="M9.99987 24.8708L5.96938 20.0591C5.89152 20.0104 5.80119 19.9862 5.7101 19.9903C5.63413 19.9933 5.56119 20.0206 5.50185 20.0689C5.46708 20.0939 5.43911 20.1275 5.41983 20.1664C5.40094 20.2054 5.39187 20.2485 5.393 20.2919V25.697H3.21637V17.8235H5.31476C6.00415 17.8235 6.53631 17.8522 7.04125 18.4335L10.8038 22.9697C10.8824 23.0941 10.9841 23.2014 11.1031 23.2853C11.1931 23.3337 11.2932 23.3583 11.3949 23.3556C11.5223 23.3556 11.6016 23.3155 11.6326 23.2369C11.6674 23.13 11.6829 23.0177 11.6784 22.9051V17.8235H13.8871V25.697H11.1394C10.7943 25.697 10.4111 25.3637 9.99911 24.8708H9.99987Z" fill="#ED1C24"/>
<path fill-rule="evenodd" clip-rule="evenodd" d="M40.3041 17.819V19.745C40.2032 19.7322 40.0951 19.7254 39.9787 19.7254H34.1333C33.9606 19.7371 33.7924 19.79 33.6431 19.8796C33.4499 19.9809 33.2772 20.1184 33.1336 20.2847C32.999 20.4287 32.9212 20.6185 32.9148 20.8176V22.3604C32.9114 22.6957 33.0142 23.023 33.2077 23.2932C33.3071 23.421 33.4352 23.5227 33.5811 23.5884C33.7274 23.6546 33.8869 23.6833 34.046 23.6719H40.2852C40.2916 23.6723 40.2977 23.6723 40.3041 23.6723V25.7008H33.1121C32.6544 25.7102 32.205 25.5765 31.8236 25.3168C31.4608 25.0704 31.163 24.7359 30.957 24.3428C30.7672 24.0023 30.6629 23.619 30.6535 23.2271V20.2639C30.6535 19.9431 30.7241 19.626 30.8602 19.3368C30.9955 19.0454 31.1796 18.7805 31.4045 18.5545C31.6195 18.3345 31.869 18.1523 32.1422 18.0159C32.3788 17.8923 32.6396 17.825 32.9053 17.819H40.3041Z" fill="#ED1C24"/>
</g>
</svg>
